<?xml version="1.0" encoding="UTF-8"?>
<svg width="1580" height="1075" xmlns="http://www.w3.org/2000/svg"
     font-family="'Segoe UI', system-ui, Arial, sans-serif">
  <defs>
    <marker id="dep-arr" markerWidth="8" markerHeight="6" refX="7" refY="3" orient="auto">
      <polygon points="0 0, 8 3, 0 6" fill="#6366F1"/>
    </marker>
    <marker id="comp-arr" markerWidth="8" markerHeight="6" refX="7" refY="3" orient="auto">
      <polygon points="0 0, 8 3, 0 6" fill="#F59E0B"/>
    </marker>
  </defs>

  <!-- ═══════════════════════════════════════════ -->
  <!-- BACKGROUND                                  -->
  <!-- ═══════════════════════════════════════════ -->
  <rect width="1580" height="1075" fill="#F8FAFC"/>

  <!-- ═══════════════════════════════════════════ -->
  <!-- TITLE + LEGEND                              -->
  <!-- ═══════════════════════════════════════════ -->
  <text x="790" y="30" text-anchor="middle" font-size="18" font-weight="bold" fill="#0F172A">Jagain — Class Diagram</text>
  <text x="790" y="50" text-anchor="middle" font-size="11" fill="#64748B">Feed &amp; Engagement · Shared Domain Models · Repositories · BLoC Layer</text>

  <!-- Legend boxes -->
  <rect x="20"  y="63" width="11" height="11" fill="#64748B" rx="2"/>
  <text x="36"  y="73" font-size="11" fill="#475569">Enum</text>
  <rect x="88"  y="63" width="11" height="11" fill="#7C3AED" rx="2"/>
  <text x="104" y="73" font-size="11" fill="#475569">Shared Model</text>
  <rect x="205" y="63" width="11" height="11" fill="#3B82F6" rx="2"/>
  <text x="221" y="73" font-size="11" fill="#475569">Dev A</text>
  <rect x="266" y="63" width="11" height="11" fill="#10B981" rx="2"/>
  <text x="282" y="73" font-size="11" fill="#475569">Dev B</text>
  <rect x="328" y="63" width="11" height="11" fill="#F59E0B" rx="2"/>
  <text x="344" y="73" font-size="11" fill="#475569">Dev C</text>
  <!-- dep arrow legend -->
  <line x1="400" y1="68" x2="445" y2="68" stroke="#6366F1" stroke-width="1.5" stroke-dasharray="5,3" marker-end="url(#dep-arr)"/>
  <text x="452" y="73" font-size="11" fill="#475569">depends on</text>
  <!-- comp arrow legend -->
  <line x1="545" y1="68" x2="590" y2="68" stroke="#F59E0B" stroke-width="1.5" marker-end="url(#comp-arr)"/>
  <text x="597" y="73" font-size="11" fill="#475569">association</text>

  <!-- ═══════════════════════════════════════════ -->
  <!-- SECTION 1 — ENUMS                          -->
  <!-- ═══════════════════════════════════════════ -->
  <rect x="10" y="88" width="1560" height="165" rx="8" fill="#EFF6FF" stroke="#BFDBFE"/>
  <text x="22" y="104" font-size="12" font-weight="bold" fill="#1D4ED8">«Enums»</text>

  <!-- UserRole (x=20, y=108, w=148, h=100) -->
  <rect x="23" y="111" width="148" height="100" rx="6" fill="#CBD5E1"/>
  <rect x="20" y="108" width="148" height="100" rx="6" fill="white" stroke="#E2E8F0"/>
  <rect x="20" y="108" width="148" height="42" rx="6" fill="#64748B"/>
  <rect x="20" y="142" width="148" height="8"  fill="#64748B"/>
  <text x="94" y="124" text-anchor="middle" font-size="9"  fill="#CBD5E1">«enumeration»</text>
  <text x="94" y="140" text-anchor="middle" font-size="12" font-weight="bold" fill="white">UserRole</text>
  <text x="30" y="163" font-size="11" fill="#334155">citizen</text>
  <text x="30" y="177" font-size="11" fill="#334155">official</text>
  <text x="30" y="191" font-size="11" fill="#334155">admin</text>

  <!-- ReportCategory (x=182, y=108, w=158, h=128) -->
  <rect x="185" y="111" width="158" height="128" rx="6" fill="#CBD5E1"/>
  <rect x="182" y="108" width="158" height="128" rx="6" fill="white" stroke="#E2E8F0"/>
  <rect x="182" y="108" width="158" height="42" rx="6" fill="#64748B"/>
  <rect x="182" y="142" width="158" height="8"  fill="#64748B"/>
  <text x="261" y="124" text-anchor="middle" font-size="9"  fill="#CBD5E1">«enumeration»</text>
  <text x="261" y="140" text-anchor="middle" font-size="12" font-weight="bold" fill="white">ReportCategory</text>
  <text x="192" y="163" font-size="11" fill="#334155">jalan</text>
  <text x="192" y="177" font-size="11" fill="#334155">pju</text>
  <text x="192" y="191" font-size="11" fill="#334155">jembatan</text>
  <text x="192" y="205" font-size="11" fill="#334155">drainase</text>
  <text x="192" y="219" font-size="11" fill="#334155">lainnya</text>

  <!-- ReportStatus (x=354, y=108, w=155, h=114) -->
  <rect x="357" y="111" width="155" height="114" rx="6" fill="#CBD5E1"/>
  <rect x="354" y="108" width="155" height="114" rx="6" fill="white" stroke="#E2E8F0"/>
  <rect x="354" y="108" width="155" height="42" rx="6" fill="#64748B"/>
  <rect x="354" y="142" width="155" height="8"  fill="#64748B"/>
  <text x="431" y="124" text-anchor="middle" font-size="9"  fill="#CBD5E1">«enumeration»</text>
  <text x="431" y="140" text-anchor="middle" font-size="12" font-weight="bold" fill="white">ReportStatus</text>
  <text x="364" y="163" font-size="11" fill="#334155">pending</text>
  <text x="364" y="177" font-size="11" fill="#334155">inProgress</text>
  <text x="364" y="191" font-size="11" fill="#334155">resolved</text>
  <text x="364" y="205" font-size="11" fill="#334155">rejected</text>

  <!-- ReportUrgency (x=523, y=108, w=148, h=100) -->
  <rect x="526" y="111" width="148" height="100" rx="6" fill="#CBD5E1"/>
  <rect x="523" y="108" width="148" height="100" rx="6" fill="white" stroke="#E2E8F0"/>
  <rect x="523" y="108" width="148" height="42" rx="6" fill="#64748B"/>
  <rect x="523" y="142" width="148" height="8"  fill="#64748B"/>
  <text x="597" y="124" text-anchor="middle" font-size="9"  fill="#CBD5E1">«enumeration»</text>
  <text x="597" y="140" text-anchor="middle" font-size="12" font-weight="bold" fill="white">ReportUrgency</text>
  <text x="533" y="163" font-size="11" fill="#334155">urgent</text>
  <text x="533" y="177" font-size="11" fill="#334155">normal</text>
  <text x="533" y="191" font-size="11" fill="#334155">low</text>

  <!-- VoteType (x=685, y=108, w=120, h=86) -->
  <rect x="688" y="111" width="120" height="86" rx="6" fill="#CBD5E1"/>
  <rect x="685" y="108" width="120" height="86" rx="6" fill="white" stroke="#E2E8F0"/>
  <rect x="685" y="108" width="120" height="42" rx="6" fill="#64748B"/>
  <rect x="685" y="142" width="120" height="8"  fill="#64748B"/>
  <text x="745" y="124" text-anchor="middle" font-size="9"  fill="#CBD5E1">«enumeration»</text>
  <text x="745" y="140" text-anchor="middle" font-size="12" font-weight="bold" fill="white">VoteType</text>
  <text x="695" y="163" font-size="11" fill="#334155">up</text>
  <text x="695" y="177" font-size="11" fill="#334155">down</text>

  <!-- FeedSort (x=819, y=108, w=148, h=100) -->
  <rect x="822" y="111" width="148" height="100" rx="6" fill="#CBD5E1"/>
  <rect x="819" y="108" width="148" height="100" rx="6" fill="white" stroke="#E2E8F0"/>
  <rect x="819" y="108" width="148" height="42" rx="6" fill="#64748B"/>
  <rect x="819" y="142" width="148" height="8"  fill="#64748B"/>
  <text x="893" y="124" text-anchor="middle" font-size="9"  fill="#CBD5E1">«enumeration»</text>
  <text x="893" y="140" text-anchor="middle" font-size="12" font-weight="bold" fill="white">FeedSort</text>
  <text x="829" y="163" font-size="11" fill="#334155">newest</text>
  <text x="829" y="177" font-size="11" fill="#334155">mostUpvoted</text>
  <text x="829" y="191" font-size="11" fill="#334155">nearest</text>

  <!-- ═══════════════════════════════════════════ -->
  <!-- SECTION 2 — DOMAIN MODELS                  -->
  <!-- ═══════════════════════════════════════════ -->
  <rect x="10" y="252" width="1560" height="360" rx="8" fill="#FAF5FF" stroke="#E9D5FF"/>
  <text x="22" y="268" font-size="12" font-weight="bold" fill="#6D28D9">«Domain Models»</text>

  <!-- ─── WilayahModel (x=20, y=275, w=200, h=140) ─── -->
  <!-- fields=4 methods=2  h=56+6*14=140 -->
  <rect x="23" y="278" width="200" height="140" rx="6" fill="#CBD5E1"/>
  <rect x="20" y="275" width="200" height="140" rx="6" fill="white" stroke="#E2E8F0"/>
  <rect x="20" y="275" width="200" height="28" rx="6" fill="#7C3AED"/>
  <rect x="20" y="295" width="200" height="8"  fill="#7C3AED"/>
  <text x="120" y="293" text-anchor="middle" font-size="12" font-weight="bold" fill="white">WilayahModel</text>
  <!-- field y_start = 275+47 = 322 -->
  <text x="28" y="322" font-size="11" fill="#334155">+ kelurahan : String</text>
  <text x="28" y="336" font-size="11" fill="#334155">+ kecamatan : String</text>
  <text x="28" y="350" font-size="11" fill="#334155">+ kota : String</text>
  <text x="28" y="364" font-size="11" fill="#334155">+ provinsi : String</text>
  <!-- divider y = 275+28+8+4*14+4 = 371 -->
  <line x1="20" y1="371" x2="220" y2="371" stroke="#E2E8F0"/>
  <text x="28" y="390" font-size="11" fill="#2563EB">+ toMap() : Map</text>
  <text x="28" y="404" font-size="11" fill="#2563EB">+ fromMap() : WilayahModel</text>

  <!-- ─── UserModel (x=240, y=275, w=238, h=196) ─── -->
  <!-- fields=8 methods=2  h=56+10*14=196 -->
  <rect x="243" y="278" width="238" height="196" rx="6" fill="#CBD5E1"/>
  <rect x="240" y="275" width="238" height="196" rx="6" fill="white" stroke="#E2E8F0"/>
  <rect x="240" y="275" width="238" height="28" rx="6" fill="#3B82F6"/>
  <rect x="240" y="295" width="238" height="8"  fill="#3B82F6"/>
  <text x="359" y="293" text-anchor="middle" font-size="12" font-weight="bold" fill="white">UserModel</text>
  <text x="468" y="286" font-size="9" fill="#DBEAFE">[Dev A]</text>
  <!-- field y_start = 322 -->
  <text x="248" y="322" font-size="11" fill="#334155">+ uid : String</text>
  <text x="248" y="336" font-size="11" fill="#334155">+ name : String</text>
  <text x="248" y="350" font-size="11" fill="#334155">+ email : String</text>
  <text x="248" y="364" font-size="11" fill="#334155">+ role : UserRole</text>
  <text x="248" y="378" font-size="11" fill="#334155">+ avatarUrl : String?</text>
  <text x="248" y="392" font-size="11" fill="#334155">+ wilayah : WilayahModel?</text>
  <text x="248" y="406" font-size="11" fill="#334155">+ isVerified : bool</text>
  <text x="248" y="420" font-size="11" fill="#334155">+ createdAt : DateTime</text>
  <!-- divider y = 275+28+8+8*14+4 = 427 -->
  <line x1="240" y1="427" x2="478" y2="427" stroke="#E2E8F0"/>
  <text x="248" y="446" font-size="11" fill="#2563EB">+ toMap() : Map</text>
  <text x="248" y="460" font-size="11" fill="#2563EB">+ fromMap() : UserModel</text>

  <!-- ─── ReportModel (x=498, y=265, w=282, h=322) ─── -->
  <!-- fields=16 methods=3  h=56+19*14=322 -->
  <rect x="501" y="268" width="282" height="322" rx="6" fill="#CBD5E1"/>
  <rect x="498" y="265" width="282" height="322" rx="6" fill="white" stroke="#E2E8F0"/>
  <rect x="498" y="265" width="282" height="28" rx="6" fill="#7C3AED"/>
  <rect x="498" y="285" width="282" height="8"  fill="#7C3AED"/>
  <text x="639" y="283" text-anchor="middle" font-size="12" font-weight="bold" fill="white">ReportModel</text>
  <!-- field y_start = 265+47 = 312 -->
  <text x="506" y="312" font-size="11" fill="#334155">+ id : String</text>
  <text x="506" y="326" font-size="11" fill="#334155">+ userId : String</text>
  <text x="506" y="340" font-size="11" fill="#334155">+ userName : String</text>
  <text x="506" y="354" font-size="11" fill="#334155">+ title : String</text>
  <text x="506" y="368" font-size="11" fill="#334155">+ description : String</text>
  <text x="506" y="382" font-size="11" fill="#334155">+ category : ReportCategory</text>
  <text x="506" y="396" font-size="11" fill="#334155">+ urgency : ReportUrgency</text>
  <text x="506" y="410" font-size="11" fill="#334155">+ status : ReportStatus</text>
  <text x="506" y="424" font-size="11" fill="#334155">+ imageUrls : List&lt;String&gt;</text>
  <text x="506" y="438" font-size="11" fill="#334155">+ location : GeoPoint</text>
  <text x="506" y="452" font-size="11" fill="#334155">+ wilayah : WilayahModel</text>
  <text x="506" y="466" font-size="11" fill="#334155">+ upvoteCount : int</text>
  <text x="506" y="480" font-size="11" fill="#334155">+ downvoteCount : int</text>
  <text x="506" y="494" font-size="11" fill="#334155">+ commentCount : int</text>
  <text x="506" y="508" font-size="11" fill="#334155">+ createdAt : DateTime</text>
  <text x="506" y="522" font-size="11" fill="#334155">+ updatedAt : DateTime</text>
  <!-- divider y = 265+28+8+16*14+4 = 529 -->
  <line x1="498" y1="529" x2="780" y2="529" stroke="#E2E8F0"/>
  <text x="506" y="548" font-size="11" fill="#2563EB">+ toMap() : Map</text>
  <text x="506" y="562" font-size="11" fill="#2563EB">+ fromMap() : ReportModel</text>
  <text x="506" y="576" font-size="11" fill="#2563EB">+ copyWith() : ReportModel</text>

  <!-- ─── VoteModel (x=800, y=275, w=198, h=126) ─── -->
  <!-- fields=3 methods=2  h=56+5*14=126 -->
  <rect x="803" y="278" width="198" height="126" rx="6" fill="#CBD5E1"/>
  <rect x="800" y="275" width="198" height="126" rx="6" fill="white" stroke="#E2E8F0"/>
  <rect x="800" y="275" width="198" height="28" rx="6" fill="#10B981"/>
  <rect x="800" y="295" width="198" height="8"  fill="#10B981"/>
  <text x="899" y="293" text-anchor="middle" font-size="12" font-weight="bold" fill="white">VoteModel</text>
  <text x="988" y="286" font-size="9" fill="#D1FAE5">[Dev B]</text>
  <!-- field y_start = 322 -->
  <text x="808" y="322" font-size="11" fill="#334155">+ userId : String</text>
  <text x="808" y="336" font-size="11" fill="#334155">+ type : VoteType</text>
  <text x="808" y="350" font-size="11" fill="#334155">+ createdAt : DateTime</text>
  <!-- divider y = 275+28+8+3*14+4 = 357 -->
  <line x1="800" y1="357" x2="998" y2="357" stroke="#E2E8F0"/>
  <text x="808" y="376" font-size="11" fill="#2563EB">+ toMap() : Map</text>
  <text x="808" y="390" font-size="11" fill="#2563EB">+ fromMap() : VoteModel</text>

  <!-- ─── CommentModel (x=1018, y=265, w=248, h=224) ─── -->
  <!-- fields=10 methods=2  h=56+12*14=224 -->
  <rect x="1021" y="268" width="248" height="224" rx="6" fill="#CBD5E1"/>
  <rect x="1018" y="265" width="248" height="224" rx="6" fill="white" stroke="#E2E8F0"/>
  <rect x="1018" y="265" width="248" height="28" rx="6" fill="#10B981"/>
  <rect x="1018" y="285" width="248" height="8"  fill="#10B981"/>
  <text x="1142" y="283" text-anchor="middle" font-size="12" font-weight="bold" fill="white">CommentModel</text>
  <text x="1256" y="277" font-size="9" fill="#D1FAE5">[Dev B]</text>
  <!-- field y_start = 312 -->
  <text x="1026" y="312" font-size="11" fill="#334155">+ id : String</text>
  <text x="1026" y="326" font-size="11" fill="#334155">+ userId : String</text>
  <text x="1026" y="340" font-size="11" fill="#334155">+ userName : String</text>
  <text x="1026" y="354" font-size="11" fill="#334155">+ userRole : UserRole</text>
  <text x="1026" y="368" font-size="11" fill="#334155">+ text : String</text>
  <text x="1026" y="382" font-size="11" fill="#334155">+ isPinned : bool</text>
  <text x="1026" y="396" font-size="11" fill="#334155">+ isOfficialUpdate : bool</text>
  <text x="1026" y="410" font-size="11" fill="#334155">+ statusChange : ReportStatus?</text>
  <text x="1026" y="424" font-size="11" fill="#334155">+ attachmentUrl : String?</text>
  <text x="1026" y="438" font-size="11" fill="#334155">+ createdAt : DateTime</text>
  <!-- divider y = 265+28+8+10*14+4 = 445 -->
  <line x1="1018" y1="445" x2="1266" y2="445" stroke="#E2E8F0"/>
  <text x="1026" y="464" font-size="11" fill="#2563EB">+ toMap() : Map</text>
  <text x="1026" y="478" font-size="11" fill="#2563EB">+ fromMap() : CommentModel</text>

  <!-- ═══════════════════════════════════════════ -->
  <!-- SECTION 3 — REPOSITORIES                   -->
  <!-- ═══════════════════════════════════════════ -->
  <rect x="10" y="605" width="1560" height="175" rx="8" fill="#F0FDF4" stroke="#BBF7D0"/>
  <text x="22" y="621" font-size="12" font-weight="bold" fill="#15803D">«Repositories»</text>

  <!-- ─── FeedRepository (x=20, y=622, w=278, h=112) ─── -->
  <!-- 1 dep + 3 methods  h=56+4*14=112 -->
  <rect x="23" y="625" width="278" height="112" rx="6" fill="#CBD5E1"/>
  <rect x="20" y="622" width="278" height="112" rx="6" fill="white" stroke="#E2E8F0"/>
  <rect x="20" y="622" width="278" height="28" rx="6" fill="#10B981"/>
  <rect x="20" y="642" width="278" height="8"  fill="#10B981"/>
  <text x="159" y="640" text-anchor="middle" font-size="12" font-weight="bold" fill="white">FeedRepository</text>
  <text x="290" y="633" font-size="9" fill="#D1FAE5">[Dev B]</text>
  <!-- dep y = 622+47 = 669 -->
  <text x="28" y="669" font-size="11" fill="#94A3B8">- _firestore : FirebaseFirestore</text>
  <!-- divider y = 622+28+8+1*14+4 = 676 -->
  <line x1="20" y1="676" x2="298" y2="676" stroke="#E2E8F0"/>
  <!-- methods y = 676+8+11 = 695 -->
  <text x="28" y="695" font-size="11" fill="#2563EB">+ getReportsFeed(sort) : Stream</text>
  <text x="28" y="709" font-size="11" fill="#2563EB">+ getReportById(id) : Future</text>
  <text x="28" y="723" font-size="11" fill="#2563EB">+ getUserVote(rId, uid) : Future</text>

  <!-- ─── VoteRepository (x=312, y=622, w=278, h=84) ─── -->
  <!-- 1 dep + 1 method  h=56+2*14=84 -->
  <rect x="315" y="625" width="278" height="84" rx="6" fill="#CBD5E1"/>
  <rect x="312" y="622" width="278" height="84" rx="6" fill="white" stroke="#E2E8F0"/>
  <rect x="312" y="622" width="278" height="28" rx="6" fill="#10B981"/>
  <rect x="312" y="642" width="278" height="8"  fill="#10B981"/>
  <text x="451" y="640" text-anchor="middle" font-size="12" font-weight="bold" fill="white">VoteRepository</text>
  <text x="582" y="633" font-size="9" fill="#D1FAE5">[Dev B]</text>
  <text x="320" y="669" font-size="11" fill="#94A3B8">- _firestore : FirebaseFirestore</text>
  <line x1="312" y1="676" x2="590" y2="676" stroke="#E2E8F0"/>
  <text x="320" y="695" font-size="11" fill="#2563EB">+ toggleVote(rId, uid, type) : Future</text>

  <!-- ─── CommentRepository (x=604, y=622, w=295, h=126) ─── -->
  <!-- 1 dep + 4 methods  h=56+5*14=126 -->
  <rect x="607" y="625" width="295" height="126" rx="6" fill="#CBD5E1"/>
  <rect x="604" y="622" width="295" height="126" rx="6" fill="white" stroke="#E2E8F0"/>
  <rect x="604" y="622" width="295" height="28" rx="6" fill="#10B981"/>
  <rect x="604" y="642" width="295" height="8"  fill="#10B981"/>
  <text x="751" y="640" text-anchor="middle" font-size="12" font-weight="bold" fill="white">CommentRepository</text>
  <text x="891" y="633" font-size="9" fill="#D1FAE5">[Dev B]</text>
  <text x="612" y="669" font-size="11" fill="#94A3B8">- _firestore : FirebaseFirestore</text>
  <line x1="604" y1="676" x2="899" y2="676" stroke="#E2E8F0"/>
  <text x="612" y="695" font-size="11" fill="#2563EB">+ getComments(rId) : Stream</text>
  <text x="612" y="709" font-size="11" fill="#2563EB">+ addComment(rId, comment) : Future</text>
  <text x="612" y="723" font-size="11" fill="#2563EB">+ pinComment(rId, cId) : Future</text>
  <text x="612" y="737" font-size="11" fill="#2563EB">+ addOfficialUpdate(...) : Future</text>

  <!-- ─── ReportRepository (x=913, y=622, w=278, h=126) ─── -->
  <!-- 2 deps + 3 methods  h=56+5*14=126 -->
  <rect x="916" y="625" width="278" height="126" rx="6" fill="#CBD5E1"/>
  <rect x="913" y="622" width="278" height="126" rx="6" fill="white" stroke="#E2E8F0"/>
  <rect x="913" y="622" width="278" height="28" rx="6" fill="#F59E0B"/>
  <rect x="913" y="642" width="278" height="8"  fill="#F59E0B"/>
  <text x="1052" y="640" text-anchor="middle" font-size="12" font-weight="bold" fill="white">ReportRepository</text>
  <text x="1183" y="633" font-size="9" fill="#FEF3C7">[Dev C]</text>
  <text x="921" y="669" font-size="11" fill="#94A3B8">- _firestore : FirebaseFirestore</text>
  <text x="921" y="683" font-size="11" fill="#94A3B8">- _minio : MinioService</text>
  <!-- divider y = 622+28+8+2*14+4 = 690 -->
  <line x1="913" y1="690" x2="1191" y2="690" stroke="#E2E8F0"/>
  <text x="921" y="709" font-size="11" fill="#2563EB">+ createReport(...) : Future&lt;String&gt;</text>
  <text x="921" y="723" font-size="11" fill="#2563EB">+ updateStatus(rId, s) : Future</text>
  <text x="921" y="737" font-size="11" fill="#2563EB">+ getByWilayah(w) : Stream</text>

  <!-- ─── MinioService (x=1205, y=622, w=250, h=154) ─── -->
  <!-- 4 deps + 3 methods  h=56+7*14=154 -->
  <rect x="1208" y="625" width="250" height="154" rx="6" fill="#CBD5E1"/>
  <rect x="1205" y="622" width="250" height="154" rx="6" fill="white" stroke="#E2E8F0"/>
  <rect x="1205" y="622" width="250" height="28" rx="6" fill="#F59E0B"/>
  <rect x="1205" y="642" width="250" height="8"  fill="#F59E0B"/>
  <text x="1330" y="640" text-anchor="middle" font-size="12" font-weight="bold" fill="white">MinioService</text>
  <text x="1447" y="633" font-size="9" fill="#FEF3C7">[Dev C]</text>
  <text x="1213" y="669" font-size="11" fill="#94A3B8">- endpoint : String</text>
  <text x="1213" y="683" font-size="11" fill="#94A3B8">- accessKey : String</text>
  <text x="1213" y="697" font-size="11" fill="#94A3B8">- secretKey : String</text>
  <text x="1213" y="711" font-size="11" fill="#94A3B8">- bucket : String</text>
  <!-- divider y = 622+28+8+4*14+4 = 718 -->
  <line x1="1205" y1="718" x2="1455" y2="718" stroke="#E2E8F0"/>
  <text x="1213" y="737" font-size="11" fill="#2563EB">+ uploadReportImage(...) : Future</text>
  <text x="1213" y="751" font-size="11" fill="#2563EB">+ uploadProfileAvatar(...) : Future</text>
  <text x="1213" y="765" font-size="11" fill="#2563EB">+ deleteFile(url) : Future</text>

  <!-- ═══════════════════════════════════════════ -->
  <!-- SECTION 4 — BLOC LAYER                     -->
  <!-- ═══════════════════════════════════════════ -->
  <rect x="10" y="788" width="1560" height="272" rx="8" fill="#ECFDF5" stroke="#A7F3D0"/>
  <text x="22" y="804" font-size="12" font-weight="bold" fill="#065F46">«BLoC Layer»</text>

  <!-- ─── FeedBloc (x=20, y=808, w=438, h=240) ─── -->
  <rect x="23" y="811" width="438" height="240" rx="6" fill="#CBD5E1"/>
  <rect x="20" y="808" width="438" height="240" rx="6" fill="white" stroke="#E2E8F0"/>
  <rect x="20" y="808" width="438" height="28" rx="6" fill="#10B981"/>
  <rect x="20" y="828" width="438" height="8"  fill="#10B981"/>
  <text x="239" y="826" text-anchor="middle" font-size="12" font-weight="bold" fill="white">FeedBloc</text>
  <text x="450" y="819" font-size="9" fill="#D1FAE5">[Dev B]</text>
  <!-- deps  y_start = 808+47 = 855 -->
  <text x="28" y="855" font-size="11" fill="#94A3B8">- _feedRepo : FeedRepository</text>
  <text x="28" y="869" font-size="11" fill="#94A3B8">- _voteRepo : VoteRepository</text>
  <!-- divider1  y = 808+28+8+2*14+4 = 876 -->
  <line x1="20" y1="876" x2="458" y2="876" stroke="#E2E8F0"/>
  <!-- Events label  y = 876+8+11 = 895 -->
  <text x="28" y="895" font-size="11" font-weight="bold" fill="#475569">Events:</text>
  <text x="38" y="909" font-size="11" fill="#334155">FeedLoadRequested(sort, location?)</text>
  <text x="38" y="923" font-size="11" fill="#334155">FeedLoadMoreRequested</text>
  <text x="38" y="937" font-size="11" fill="#334155">FeedSortChanged(sort)</text>
  <text x="38" y="951" font-size="11" fill="#334155">FeedVoteToggled(rId, userId, type)</text>
  <!-- divider2  y = 951+14+4 = 969 -->
  <line x1="20" y1="969" x2="458" y2="969" stroke="#E2E8F0"/>
  <!-- States label  y = 969+8+11 = 988 -->
  <text x="28" y="988" font-size="11" font-weight="bold" fill="#475569">States:</text>
  <text x="38" y="1002" font-size="11" fill="#334155">FeedInitial</text>
  <text x="38" y="1016" font-size="11" fill="#334155">FeedLoading</text>
  <text x="38" y="1030" font-size="11" fill="#334155">FeedLoaded(reports, sort, hasMore)</text>
  <text x="38" y="1044" font-size="11" fill="#334155">FeedError(message)</text>

  <!-- ─── CommentBloc (x=472, y=808, w=388, h=210) ─── -->
  <rect x="475" y="811" width="388" height="210" rx="6" fill="#CBD5E1"/>
  <rect x="472" y="808" width="388" height="210" rx="6" fill="white" stroke="#E2E8F0"/>
  <rect x="472" y="808" width="388" height="28" rx="6" fill="#10B981"/>
  <rect x="472" y="828" width="388" height="8"  fill="#10B981"/>
  <text x="666" y="826" text-anchor="middle" font-size="12" font-weight="bold" fill="white">CommentBloc</text>
  <text x="852" y="819" font-size="9" fill="#D1FAE5">[Dev B]</text>
  <!-- dep  y_start = 855 -->
  <text x="480" y="855" font-size="11" fill="#94A3B8">- _commentRepo : CommentRepository</text>
  <!-- divider1  y = 808+28+8+1*14+4 = 862 -->
  <line x1="472" y1="862" x2="860" y2="862" stroke="#E2E8F0"/>
  <!-- Events  y = 862+8+11 = 881 -->
  <text x="480" y="881" font-size="11" font-weight="bold" fill="#475569">Events:</text>
  <text x="490" y="895" font-size="11" fill="#334155">CommentLoadRequested(reportId)</text>
  <text x="490" y="909" font-size="11" fill="#334155">CommentAdded(reportId, text)</text>
  <text x="490" y="923" font-size="11" fill="#334155">CommentPinned(reportId, commentId)</text>
  <!-- divider2  y = 923+14+4 = 941 -->
  <line x1="472" y1="941" x2="860" y2="941" stroke="#E2E8F0"/>
  <!-- States  y = 941+8+11 = 960 -->
  <text x="480" y="960" font-size="11" font-weight="bold" fill="#475569">States:</text>
  <text x="490" y="974" font-size="11" fill="#334155">CommentInitial</text>
  <text x="490" y="988" font-size="11" fill="#334155">CommentLoading</text>
  <text x="490" y="1002" font-size="11" fill="#334155">CommentLoaded(comments)</text>
  <text x="490" y="1016" font-size="11" fill="#334155">CommentError(message)</text>

  <!-- ═══════════════════════════════════════════ -->
  <!-- ARROWS / RELATIONSHIPS                     -->
  <!-- ═══════════════════════════════════════════ -->

  <!-- ── UserModel → WilayahModel (association) -->
  <path d="M240,368 L222,348" stroke="#F59E0B" stroke-width="1.5" fill="none" marker-end="url(#comp-arr)"/>

  <!-- ── ReportModel → WilayahModel (association) -->
  <path d="M498,410 L480,410 L480,258 L120,258 L120,275"
        stroke="#F59E0B" stroke-width="1.5" stroke-dasharray="6,3" fill="none" marker-end="url(#comp-arr)"/>

  <!-- ── FeedBloc ⇢ FeedRepository (dependency) -->
  <path d="M140,808 L140,762 L159,762 L159,734"
        stroke="#6366F1" stroke-width="1.5" stroke-dasharray="5,3" fill="none" marker-end="url(#dep-arr)"/>

  <!-- ── FeedBloc ⇢ VoteRepository (dependency) -->
  <path d="M350,808 L350,762 L451,762 L451,706"
        stroke="#6366F1" stroke-width="1.5" stroke-dasharray="5,3" fill="none" marker-end="url(#dep-arr)"/>

  <!-- ── CommentBloc ⇢ CommentRepository (dependency) -->
  <path d="M660,808 L660,772 L751,772 L751,748"
        stroke="#6366F1" stroke-width="1.5" stroke-dasharray="5,3" fill="none" marker-end="url(#dep-arr)"/>

  <!-- ── ReportRepository ⇢ MinioService (dependency) -->
  <path d="M1191,685 L1198,685 L1198,699 L1205,699"
        stroke="#6366F1" stroke-width="1.5" stroke-dasharray="5,3" fill="none" marker-end="url(#dep-arr)"/>

  <!-- ── Firestore collection labels on arrows -->
  <text x="142" y="758" font-size="9" fill="#6366F1">reports/</text>
  <text x="352" y="758" font-size="9" fill="#6366F1">votes/</text>
  <text x="662" y="768" font-size="9" fill="#6366F1">comments/</text>

</svg>
